<?xml version="1.0" encoding="utf-8"?>
<!-- Generator: Adobe Illustrator 15.0.1, SVG Export Plug-In . SVG Version: 6.00 Build 0)  -->
<!DOCTYPE svg PUBLIC "-//W3C//DTD SVG 1.1//EN" "http://www.w3.org/Graphics/SVG/1.1/DTD/svg11.dtd">
<svg version="1.1" xmlns="http://www.w3.org/2000/svg" width="370px" height="75px" viewBox="0 0 740 150" enable-background="new 0 0 740 150">
<path id="Pitchfork" fill="#262626" d="M242.009,37.785c-5.243-4.243-12.394-6.274-20.29-6.274h-50.167v11.288h10.796
	c1.46,0.005,2.635,1.254,2.651,2.899v58.754c-0.016,1.645-1.19,2.895-2.651,2.895h-10.796v11.292h43.878v-11.292h-10.066
	c-1.366,0.006-2.163-0.25-2.486-0.545c-0.316-0.269-0.633-0.762-0.652-2.23v-22.64h24.338c7.145,0.007,13.186-2.863,17.358-7.454
	c4.18-4.589,6.517-10.852,6.517-17.635C250.46,48.516,247.26,42.023,242.009,37.785 M232.608,56.721
	c-0.042,7.826-5.6,14.018-13.676,14.04h-16.706V42.799h17.313C227.187,42.804,232.573,49.108,232.608,56.721z M271.289,45.829
	c5.398-0.01,10.185-4.167,10.187-9.944c-0.042-5.397-4.52-9.9-9.825-9.947c-5.811,0.017-9.937,4.927-9.946,10.313
	C261.714,41.586,265.951,45.819,271.289,45.829 M282.796,108.075c-0.975-0.014-1.342-0.214-1.591-0.489
	c-0.262-0.278-0.584-1.02-0.576-2.53V50.627l-26.435,2.342v9.94h8.979c0.67,0.148,1.235,0.043,1.317,1.567v40.579
	c-0.131,3.081-1.372,2.838-2.044,3.02h-8.127v10.559h36.73v-10.559H282.796z M330.4,107.385l1.916-0.412v10.587l-1.198,0.299
	c-6.256,1.571-9.787,2.354-15.924,2.354h-0.087c-6.139-0.009-10.657-1.46-12.855-4.99c-1.469-2.355-1.939-5.165-1.939-11.254V63.155
	h-10.66V53.087l1.57-0.014c5.956-0.126,8.774-1.769,10.678-5.28c1.91-3.578,2.546-9.557,2.532-17.845v-1.586h12.134v24.711h14.176
	v10.082l-14.176-0.003v41.423c0.008,2.094,0.405,2.878,0.86,3.234c0.457,0.421,1.711,0.769,3.976,0.749
	C324.042,108.559,326.435,108.221,330.4,107.385 M382.268,92.689h11.774v1.588c0.01,7.892-2.942,14.489-8.079,18.995
	c-5.14,4.518-12.351,6.939-20.764,6.939h-0.047c-9.99,0-18.078-3.669-23.563-9.812c-5.5-6.144-8.382-14.663-8.382-24.244
	c-0.005-10.153,3.367-19.006,9.457-25.297c6.08-6.3,14.843-9.973,25.322-9.964c5.175,0.007,11.015,1.313,15.726,4.238
	c4.697,2.887,8.292,7.637,8.272,14.066c-0.009,6.155-4.76,10.899-10.915,10.911c-2.647,0-5.124-0.866-6.959-2.505
	c-1.843-1.626-2.998-4.045-2.986-6.833c-0.027-3.013,1.22-5.734,3.473-7.677c-1.969-0.796-5.214-0.987-7.461-0.913
	c-6.253,0.046-9.891,2.822-12.363,7.127c-2.435,4.311-3.382,10.233-3.371,15.88c-0.011,5.637,0.995,11.353,3.481,15.475
	c2.522,4.11,6.257,6.757,12.619,6.804c9.214-0.127,14.676-4.971,14.767-13.191V92.689 M471.953,118.635h-35.451v-10.56h7.402
	c0.988-0.003,1.802-0.884,1.807-1.563V71.743c-0.008-5.443-4.453-8.004-9.802-8.104c-3.671-0.008-7.502,1.362-10.339,3.683
	c-2.839,2.332-4.666,5.509-4.673,9.269v28.465c-0.002,1.508,0.318,2.262,0.576,2.546c0.248,0.273,0.571,0.456,1.475,0.474h8.367
	v10.56H394.59v-10.56h8.127c0.308,0,0.795-0.104,1.139-0.432c0.341-0.326,0.772-0.945,0.788-2.588V36.856
	c-0.019-0.965-0.246-1.175-0.387-1.314c-0.151-0.138-0.494-0.253-0.931-0.253h-9.585v-9.944l27.156-2.331v36.292
	c4.928-5.546,11.442-8.564,19.25-8.529c10.239-0.047,20.991,6.229,21.696,18.059v37.315c-0.012,0.299,0.204,0.906,0.566,1.321
	c0.364,0.436,0.778,0.616,0.998,0.604h4.064l3.71-0.001h7.013c0.669-0.181,1.917,0.058,2.05-3.019v-41.78h-9.692V53.074h9.812
	V38.553c-0.025-6.02,3.155-10.471,7.486-13.129c4.333-2.693,9.794-3.841,14.94-3.845c3.935,0.007,8.377,0.642,12.035,2.558
	c3.655,1.875,6.55,5.381,6.509,10.414c0.008,2.944-0.979,5.49-2.75,7.257c-1.766,1.768-4.244,2.698-6.952,2.69
	c-2.45,0.003-4.647-0.918-6.187-2.486c-1.549-1.562-2.429-3.744-2.429-6.126c-0.037-1.731,0.392-3.092,1.085-4.274
	c-0.339-0.048-0.702-0.076-1.067-0.076c-3.783,0.022-6.522,2.807-6.535,6.287l-0.003,15.252h16.96v10.201H496.5v41.78
	c-0.003,1.51,0.315,2.251,0.577,2.531c0.249,0.272,0.612,0.475,1.594,0.487h11.64v10.563h-34.727L471.953,118.635 M571.09,60.979
	c-5.638-6.292-13.85-10.094-23.758-10.082c-9.946-0.008-18.426,3.576-24.366,9.686c-5.948,6.099-9.329,14.676-9.325,24.485
	c0,9.917,2.743,18.727,8.245,25.102c5.482,6.366,13.713,10.164,24.167,10.164h0.066c10.23,0.007,18.733-3.543,24.604-9.715
	c5.88-6.166,9.091-14.864,9.087-24.94C579.811,75.957,576.729,67.262,571.09,60.979 M534.339,69.471
	c2.393-4.515,5.968-7.476,12.509-7.528c6.168,0.047,9.715,2.879,12.124,7.226c2.371,4.349,3.255,10.251,3.247,15.655
	c0.008,5.865-0.768,12.238-3.147,16.93c-2.428,4.677-6.056,7.72-12.711,7.773c-6.534-0.06-9.963-2.996-12.249-7.514
	c-2.23-4.535-2.891-10.703-2.88-16.335C531.221,80.12,531.995,73.995,534.339,69.471z M635.649,54.411
	c2.597,2.285,4.045,5.717,4.033,9.823c0,3.047-0.802,5.775-2.596,7.757c-1.789,1.99-4.49,3.046-7.712,3.035
	c-2.396,0.003-4.564-0.793-6.107-2.3c-1.543-1.497-2.396-3.657-2.388-6.068c0.015-1.756,0.54-3.366,1.302-4.772
	c-3.432,0.865-6.779,3.36-9.423,6.693c-3.321,4.147-5.441,9.519-5.423,13.824v22.653c-0.004,1.507,0.314,2.261,0.573,2.543
	c0.247,0.274,0.573,0.458,1.477,0.476h12.734v10.56h-41.219v-10.56h8.251c0.309,0,0.795-0.107,1.139-0.435
	c0.341-0.323,0.773-0.942,0.784-2.584V64.839c-0.02-0.933-0.242-1.14-0.412-1.301c-0.183-0.158-0.548-0.268-0.902-0.263h-9.583
	v-9.939l27.158-2.474v10.643c3.887-5.656,9.105-10.485,18.041-10.487C629.468,51.014,633.057,52.12,635.649,54.411 M712.803,108.438
	c-4.391-0.071-5.966,0.07-8.311-2.889l-21.285-28.149l14.054-12.594c0.512-0.458,1.39-1.373,4.275-1.407h7.4V53.077h-35.396v10.321
	h7.037c0.32,0.003,0.515,0.05,0.63,0.098c-0.049,0.078-0.121,0.19-0.24,0.357c-1.15,1.553-5.489,5.36-17.34,16.461V23.014
	l-27.159,2.327v9.949h9.704c0.358,0,0.665,0.103,0.814,0.237c0.143,0.141,0.373,0.366,0.389,1.327v68.201
	c-0.016,1.643-0.448,2.26-0.791,2.585c-0.347,0.33-0.833,0.437-1.141,0.434h-8.128v10.564h35.521v-10.564h-7.158
	c-0.906-0.016-1.23-0.199-1.477-0.475c-0.259-0.284-0.581-1.039-0.575-2.544v-10.08l7.939-7.243
	c4.966,6.075,8.665,10.73,11.133,14.123c2.358,3.121,3.514,5.431,3.669,5.982c-0.127,0.089-0.455,0.273-0.58,0.236h-8.133v10.564
	h36.732v-10.201H712.803 M681.351,63.569h0.003l-0.003,0.005V63.569z"/>
<path id="SM" fill="#262626" d="M715.246,63.526h-0.833v-3.944h0.921c0.464,1.8,1.266,3.05,3.258,3.05
	c1.092,0,2.355-0.521,2.355-1.771c0-0.595-0.343-1.071-0.926-1.248l-3.734-1.102c-1.367-0.418-1.947-1.666-1.947-2.617
	c0-1.98,1.71-3.038,3.539-3.038c1.089,0,2.012,0.328,2.829,1.044l0.461-0.806H722v3.899h-0.951c-0.223-1.786-1.309-3.08-3.14-3.08
	c-0.997,0-1.979,0.43-1.979,1.575c0,0.522,0.357,1.059,0.953,1.251l3.868,1.206c0.984,0.299,1.694,1.188,1.694,2.604
	c0,2.201-1.709,3.198-3.73,3.198c-1.311,0-2.069-0.252-2.993-1.087L715.246,63.526 M734.162,61.857c0,0.299-0.222,0.553-0.518,0.553
	h-1.118v0.997h4.985V62.41h-1.042c-0.371,0-0.593-0.119-0.593-0.536v-7.245c0-0.402,0.222-0.537,0.593-0.537h1.042v-0.997h-3.986
	l-2.993,7.902c-2.054-5.269-3.079-7.902-3.096-7.902h-3.939v0.997h1.113c0.298,0,0.524,0.252,0.524,0.55v7.216
	c0,0.299-0.227,0.553-0.524,0.553h-1.113v0.997h4.419V62.41h-1.043c-0.37,0-0.595-0.119-0.595-0.536v-7.603l3.453,9.136h0.95
	l3.48-9.181V61.857"/>
<g>
	<path fill="#262626" d="M142.278,25.746C115.117-0.685,71.511-0.119,45.063,27.027c-26.435,27.179-25.855,70.781,1.305,97.226
		c27.152,26.445,70.745,25.863,97.208-1.3C170,95.811,169.432,52.196,142.278,25.746 M131.708,111.397
		c-20.086,20.617-53.176,21.057-73.783,0.986c-20.62-20.076-21.057-53.17-0.994-73.799c20.074-20.605,53.174-21.035,73.789-0.974
		C151.333,57.688,151.765,90.795,131.708,111.397z"/>
	<path fill="#EF4135" d="M125.418,43.95l-23.388,0.007l6.805,6.805l-52.654,52.653c1.376,1.84,2.878,3.581,4.501,5.204
		c1.69,1.689,3.508,3.248,5.434,4.669l52.623-52.622l6.758,6.76L125.418,43.95 M68.751,36.705l6.807,6.805L46.836,72.233
		c-0.064,1.125-0.105,2.258-0.091,3.401c0.064,4.938,0.889,9.686,2.349,14.146l36.367-36.366l6.757,6.761l-0.077-23.476
		L68.751,36.705z M132.511,77.07l-23.389,0.006l6.806,6.805l-36.346,36.345c4.838,1.581,10.007,2.422,15.376,2.352v0.001
		c0.726-0.009,1.446-0.041,2.161-0.083l28.709-28.709l6.76,6.756L132.511,77.07z"/>
</g>
</svg>
