<?xml version="1.0" encoding="iso-8859-1"?>
<!-- Generator: Adobe Illustrator 13.0.0, SVG Export Plug-In . SVG Version: 6.00 Build 14948)  -->
<!DOCTYPE svg PUBLIC "-//W3C//DTD SVG 1.1//EN" "http://www.w3.org/Graphics/SVG/1.1/DTD/svg11.dtd">
<svg version="1.1" id="Layer_1" xmlns="http://www.w3.org/2000/svg" xmlns:xlink="http://www.w3.org/1999/xlink" x="0px" y="0px"
	 width="300px" height="80px" viewBox="0 0 300 80" style="enable-background:new 0 0 300 80;" xml:space="preserve">
<g>
	<g>
		<g>
			<g>
				<path d="M290.5,70.688h-8.784v-4.813h-0.23c-2.873,3.095-5.857,5.343-12.919,5.343c-11.023,0-20.093-8.608-20.093-19.853
					c0-12.14,9.528-19.707,20.151-19.707c6.659,0,9.529,1.692,12.63,5.028h0.23V8.613h9.015"/>
				<path d="M249.219,39.565c-5.913,0-9.013,2.805-9.013,8.078v23.045h-9.015v-37.87h8.382v4.184h0.286
					c2.011-3.336,4.767-5.126,9.359-5.126"/>
				<path d="M224.99,70.688h-8.728v-4.5h-0.229c-3.389,3.41-7.062,5.03-12.746,5.03c-11.426,0-19.006-8.223-20.151-17.604
					c-1.091,9.456-10.107,17.604-20.44,17.604c-11.999,0-19.635-8.681-20.898-17.677c-1.034,9.236-8.842,17.677-19.98,17.677
					c-5.915,0-9.704-2.151-12.746-5.489h-0.288v4.959h-8.784V8.613h9.014v29.017h0.229c2.699-2.949,6.373-5.971,12.631-5.971
					c11.311,0,19.003,8.148,19.923,17.531c1.033-9.769,10.163-17.531,20.498-17.531c11.252,0,19.576,8.148,20.841,17.531
					c0.917-9.769,9.589-17.531,20.151-17.531c6.086,0,9.646,1.692,12.803,4.957h0.229v-3.798h8.67"/>
				<rect x="85.59" y="8.613" width="9.014" height="62.075"/>
				<rect x="56.768" y="20.8" width="9.015" height="8.536"/>
				<rect x="71.064" y="8.613" width="9.015" height="62.075"/>
				<rect x="56.768" y="33.52" width="9.015" height="37.168"/>
				<path style="fill:#D7DF23;" d="M281.428,51.365c0-7.545-5.455-12.115-12.173-12.115c-6.772,0-12.057,4.57-12.057,12.115
					c0,7.229,5.284,12.261,12.057,12.261C275.973,63.626,281.428,58.764,281.428,51.365"/>
				<path style="fill:#00AEEF;" d="M215.918,51.365c0-7.23-5.282-12.115-11.998-12.115c-6.774,0-12.173,4.57-12.173,12.115
					c0,7.229,5.398,12.261,12.173,12.261C210.636,63.626,215.918,58.764,215.918,51.365"/>
				<path style="fill:#FFDE00;" d="M174.466,51.365c0-7.303-5.225-12.115-12.056-12.115c-6.891,0-12.114,4.812-12.114,12.115
					s5.224,12.261,12.114,12.261C169.241,63.626,174.466,58.45,174.466,51.365"/>
				<path style="fill:#ED1C24;" d="M133.301,51.365c0-7.545-5.397-12.115-12.115-12.115c-6.717,0-12.114,4.884-12.114,12.115
					c0,7.398,5.397,12.261,12.114,12.261C127.904,63.626,133.301,58.595,133.301,51.365"/>
				<path d="M52.921,52.065c0,12.648-8.727,18.622-23.769,18.622H9V8.613h19.693c12.114,0,20.267,3.724,20.267,15.669
					c0,5.731-2.526,9.31-6.775,12.26C48.386,38.791,52.921,43.217,52.921,52.065 M38.683,24.668c0-5.657-3.731-8.148-11.312-8.148
					h-8.554v17.145h8.153C34.262,33.665,38.683,31.102,38.683,24.668z M42.817,52.139c0-7.06-4.995-10.471-14.182-10.471h-9.817
					v21.257h9.53C38.855,62.925,42.817,59.732,42.817,52.139z"/>
			</g>
		</g>
	</g>
</g>
</svg>
